# xmcd CD database file generated by Grip 3.2.0
# 
# Track frame offsets:
#       150
#       22832
#       41887
#       56560
#       71740
#       91285
#       110402
#       128760
#       145115
#       158012
#       173107
# 
# Disc length: 2528 seconds
# 
# Revision: 4
# Processed by: cddbd v1.5.2PL0 Copyright (c) Steve Scherf et al.
# Submitted via: Grip 3.2.0
# 
DISCID=8e09de0b
DTITLE=Etta James - Rocks The House
DYEAR=1963
DGENRE=Jazz
TTITLE0=Something's Got A Hold On Me
TTITLE1=Baby What You Want Me To Do
TTITLE2=What'd I Say
TTITLE3=Money (That's What I Want)
TTITLE4=Seven Day Fool
TTITLE5=Sweet Little Angel
TTITLE6=Ohh Poo Pah Doo
TTITLE7=Woke Up This Morning
TTITLE8=Ain't That Lovin' You Baby
TTITLE9=All I Could Do Is Cry
TTITLE10=I Just Want To Make Love To You
EXTD=
EXTT0=
EXTT1=
EXTT2=
EXTT3=
EXTT4=
EXTT5=
EXTT6=
EXTT7=
EXTT8=
EXTT9=
EXTT10=
PLAYORDER=
